<?xml version="1.0" standalone="no"?><!DOCTYPE svg PUBLIC "-//W3C//DTD SVG 1.1//EN" "http://www.w3.org/Graphics/SVG/1.1/DTD/svg11.dtd"><svg t="1743080331745" class="icon" viewBox="0 0 1024 1024" version="1.1" xmlns="http://www.w3.org/2000/svg" p-id="2757" data-spm-anchor-id="a313x.search_index.0.i1.3c553a819OoM2J" xmlns:xlink="http://www.w3.org/1999/xlink" width="200" height="200"><path d="M755.2 974.336H272.64c-41.472 0-75.264-33.792-75.264-75.264V126.72c0-41.472 33.792-75.264 75.264-75.264H755.2c41.472 0 75.264 33.792 75.264 75.264v772.608c0 41.216-33.792 75.008-75.264 75.008zM272.64 112.896c-7.424 0-13.824 6.4-13.824 13.824v772.608c0 7.424 6.4 13.824 13.824 13.824H755.2c7.424 0 13.824-6.4 13.824-13.824V126.72c0-7.424-6.4-13.824-13.824-13.824H272.64z" fill="#040000" p-id="2758"></path><path d="M660.48 226.816H361.472c-15.616 0-28.16-12.544-28.16-28.16s12.544-28.16 28.16-28.16H660.48c15.616 0 28.16 12.544 28.16 28.16s-12.8 28.16-28.16 28.16zM787.712 781.824H238.848c-16.896 0-30.72-13.824-30.72-30.72s13.824-30.72 30.72-30.72h549.12c16.896 0 30.72 13.824 30.72 30.72s-13.824 30.72-30.976 30.72z" fill="#040000" p-id="2759"></path><path d="M507.392 848.128m-39.168 0a39.168 39.168 0 1 0 78.336 0 39.168 39.168 0 1 0-78.336 0Z" fill="#040000" p-id="2760"></path></svg>